<svg width="68.934662" height="55.443359" viewBox="0 0 68.9347 55.4434" fill="none" xmlns="http://www.w3.org/2000/svg" xmlns:xlink="http://www.w3.org/1999/xlink">
	<desc>
			Created with Pixso.
	</desc>
	<defs/>
	<path id="Vector" d="M39.13 16.88L37.82 15.88C37.61 15.71 37.35 15.63 37.09 15.66C36.83 15.69 36.59 15.81 36.42 16.02L18.29 36.84L18.57 37.15L23.06 33.01C22.91 32.95 22.79 32.84 22.71 32.7C22.63 32.55 22.61 32.39 22.64 32.23C22.67 32.07 22.76 31.93 22.89 31.83C23.01 31.73 23.17 31.68 23.33 31.68C23.48 31.68 23.62 31.72 23.73 31.81C23.85 31.9 23.94 32.02 23.98 32.16L29.9 26.67C29.99 26.6 30.1 26.56 30.22 26.56C30.34 26.56 30.45 26.6 30.54 26.67L30.84 26.89C30.94 26.96 31.07 26.99 31.19 26.98C31.31 26.96 31.43 26.9 31.51 26.81L39.25 18.13C39.33 18.04 39.39 17.94 39.43 17.83C39.47 17.71 39.49 17.59 39.48 17.48C39.46 17.36 39.43 17.24 39.37 17.14C39.31 17.04 39.23 16.95 39.13 16.88Z" fill="#303030" fill-opacity="1.000000" fill-rule="nonzero"/>
	<path id="Vector" d="M47.65 22.74C43.68 25.56 39.24 27.64 34.53 28.89C29.86 30.08 25.08 30.79 20.26 31.01C20.36 31.72 20.53 32.42 20.78 33.09C23.5 35.55 43.98 31.35 47.98 26.49C48.83 25.48 47.65 22.74 47.65 22.74ZM23.33 33.01C23.2 33.01 23.06 32.97 22.95 32.89C22.84 32.82 22.75 32.71 22.7 32.59C22.65 32.46 22.64 32.33 22.66 32.2C22.69 32.06 22.75 31.94 22.85 31.85C22.94 31.75 23.07 31.69 23.2 31.66C23.33 31.64 23.47 31.65 23.59 31.7C23.71 31.75 23.82 31.84 23.9 31.95C23.97 32.06 24.01 32.19 24.01 32.33C24.01 32.42 23.99 32.51 23.96 32.59C23.93 32.67 23.88 32.75 23.81 32.81C23.75 32.88 23.67 32.93 23.59 32.96C23.51 32.99 23.42 33.01 23.33 33.01Z" fill="#303030" fill-opacity="1.000000" fill-rule="nonzero"/>
	<path id="Vector" d="M3.98 21.3L4.14 20.61L6.74 21.2C6.95 21.59 7.09 22.03 7.13 22.48C7.18 22.95 7.15 23.43 7.04 23.9C6.91 24.54 6.61 25.14 6.18 25.64C5.77 26.11 5.23 26.45 4.64 26.64C4.03 26.83 3.37 26.85 2.75 26.71C2.12 26.57 1.55 26.27 1.08 25.83C0.62 25.41 0.29 24.86 0.13 24.26C-0.05 23.6 -0.05 22.91 0.13 22.26C0.24 21.77 0.43 21.3 0.7 20.88C0.95 20.49 1.3 20.17 1.7 19.95L2.06 20.5C1.71 20.71 1.42 20.99 1.19 21.33C0.96 21.66 0.81 22.04 0.74 22.44C0.62 22.96 0.63 23.5 0.77 24.01C0.9 24.49 1.17 24.93 1.54 25.28C1.92 25.64 2.39 25.9 2.91 26.01C3.41 26.15 3.94 26.15 4.44 26.01C4.92 25.85 5.35 25.57 5.69 25.2C6.04 24.8 6.28 24.31 6.39 23.79C6.55 23.16 6.51 22.49 6.27 21.88L3.98 21.3Z" fill="#303030" fill-opacity="1.000000" fill-rule="nonzero"/>
	<path id="Vector" d="M9.64 15.01L7.31 18.12L8.31 19.91L7.85 20.53L4.15 13.78L4.58 13.19L12.11 14.81L11.64 15.43L9.64 15.01ZM8.98 14.85L4.98 13.95L6.98 17.54L8.98 14.85Z" fill="#303030" fill-opacity="1.000000" fill-rule="nonzero"/>
	<path id="Vector" d="M8.98 8.56L9.58 8.11L13.39 13.21L16.53 10.86L16.91 11.37L13.18 14.16L8.98 8.56Z" fill="#303030" fill-opacity="1.000000" fill-rule="nonzero"/>
	<path id="Vector" d="M15.28 4.39L15.95 4.09L18.59 9.87L22.16 8.25L22.42 8.83L18.18 10.76L15.28 4.39Z" fill="#303030" fill-opacity="1.000000" fill-rule="nonzero"/>
	<path id="Vector" d="M28.46 6.69L28.61 7.32L23.79 8.45L22.19 1.63L26.87 0.54L27.01 1.16L23.01 2.09L23.58 4.51L27.1 3.68L27.25 4.3L23.72 5.12L24.32 7.65L28.46 6.69Z" fill="#303030" fill-opacity="1.000000" fill-rule="nonzero"/>
	<path id="Vector" d="M35.33 6.94L33.66 4.74C33.47 4.75 33.29 4.75 33.1 4.74L31.22 4.8L31.29 7.02L30.55 7.02L30.32 0.02L32.98 0.01C33.73 -0.06 34.48 0.14 35.1 0.58C35.36 0.79 35.57 1.05 35.71 1.35C35.85 1.66 35.92 1.99 35.92 2.32C35.95 2.81 35.82 3.3 35.55 3.72C35.26 4.12 34.86 4.41 34.39 4.57L36.14 6.91L35.33 6.94ZM34.63 3.65C34.81 3.48 34.95 3.28 35.04 3.05C35.13 2.83 35.16 2.58 35.14 2.34C35.14 2.09 35.09 1.85 34.99 1.63C34.89 1.41 34.74 1.21 34.55 1.06C34.09 0.75 33.53 0.6 32.98 0.65L31.08 0.72L31.2 4.22L33.06 4.16C33.63 4.18 34.18 4 34.63 3.65Z" fill="#303030" fill-opacity="1.000000" fill-rule="nonzero"/>
	<path id="Vector" d="M40.62 5.08L40.26 7.47L39.53 7.36L39.9 5.01L37.83 0.01L38.61 0.13L40.38 4.39L43.38 0.86L44.08 1.01L40.62 5.08Z" fill="#303030" fill-opacity="1.000000" fill-rule="nonzero"/>
	<path id="Vector" d="M50.51 4.66L51.38 5.79L51 6.09L50.13 4.93L49.58 6.24L49.16 6.06L49.72 4.75L48.28 4.94L48.28 4.46L49.7 4.3L48.82 3.17L49.21 2.87L49.98 4.01L50.52 2.69L50.95 2.87L50.44 4.21L51.88 4.01L51.88 4.5L50.51 4.66Z" fill="#303030" fill-opacity="1.000000" fill-rule="nonzero"/>
	<path id="Vector" d="M53.85 12.72C53.61 12.35 53.47 11.94 53.42 11.51L54.01 11.25C54.05 11.64 54.18 12.03 54.39 12.37C54.61 12.75 54.9 13.09 55.25 13.37C55.61 13.71 56.06 13.93 56.55 14C56.73 14.01 56.9 13.99 57.07 13.92C57.23 13.85 57.38 13.74 57.49 13.61C57.57 13.52 57.64 13.41 57.68 13.29C57.72 13.18 57.73 13.05 57.72 12.93C57.69 12.68 57.61 12.45 57.48 12.24C57.29 11.93 57.09 11.63 56.87 11.35C56.6 11 56.36 10.63 56.15 10.25C55.99 9.96 55.9 9.64 55.89 9.31C55.89 8.94 56.03 8.58 56.28 8.31C56.5 8.04 56.79 7.85 57.11 7.74C57.47 7.63 57.86 7.63 58.22 7.74C58.69 7.89 59.12 8.14 59.49 8.46C59.8 8.71 60.07 9.01 60.3 9.34C60.51 9.64 60.67 9.98 60.77 10.34L60.2 10.64C60.1 10.3 59.95 9.99 59.76 9.7C59.57 9.44 59.34 9.21 59.09 9.01C58.74 8.67 58.29 8.45 57.8 8.4C57.62 8.38 57.44 8.41 57.28 8.48C57.11 8.56 56.97 8.67 56.86 8.81C56.77 8.9 56.71 9.01 56.67 9.12C56.63 9.24 56.62 9.37 56.63 9.49C56.65 9.74 56.74 9.98 56.87 10.2C57.01 10.43 57.21 10.73 57.48 11.09C57.75 11.43 57.99 11.79 58.2 12.17C58.37 12.45 58.46 12.78 58.47 13.11C58.47 13.48 58.33 13.84 58.08 14.11C57.86 14.38 57.57 14.57 57.24 14.68C56.88 14.79 56.49 14.79 56.13 14.68C55.66 14.53 55.22 14.28 54.85 13.96C54.45 13.61 54.11 13.19 53.85 12.72Z" fill="#303030" fill-opacity="1.000000" fill-rule="nonzero"/>
	<path id="Vector" d="M63.91 14.18L62.5 12.18L63.02 11.81L66.27 16.45L65.75 16.82L64.34 14.82L59.12 18.47L58.7 17.86L63.91 14.18Z" fill="#303030" fill-opacity="1.000000" fill-rule="nonzero"/>
	<path id="Vector" d="M61.67 22.4C61.85 21.79 62.2 21.25 62.67 20.84C63.13 20.42 63.7 20.14 64.31 20.01C64.93 19.87 65.58 19.89 66.19 20.08C66.78 20.27 67.31 20.62 67.72 21.08C68.15 21.57 68.44 22.17 68.57 22.82C68.74 23.45 68.74 24.12 68.57 24.75C68.39 25.35 68.04 25.89 67.57 26.31C67.09 26.74 66.51 27.03 65.89 27.17C65.26 27.31 64.61 27.28 64 27.09C63.41 26.9 62.88 26.56 62.47 26.09C62.04 25.6 61.75 25 61.62 24.36C61.47 23.71 61.48 23.04 61.67 22.4ZM62.98 25.58C63.31 25.96 63.75 26.24 64.23 26.39C64.73 26.53 65.25 26.55 65.76 26.44C66.27 26.33 66.74 26.09 67.13 25.75C67.5 25.41 67.77 24.98 67.92 24.5C68.06 23.99 68.07 23.46 67.96 22.95C67.85 22.43 67.61 21.96 67.27 21.56C66.92 21.18 66.48 20.9 65.98 20.75C65.48 20.61 64.94 20.61 64.44 20.75C63.93 20.85 63.46 21.08 63.08 21.44C62.71 21.78 62.43 22.21 62.29 22.7C62.15 23.21 62.15 23.74 62.29 24.25C62.4 24.74 62.64 25.2 62.98 25.58Z" fill="#303030" fill-opacity="1.000000" fill-rule="nonzero"/>
	<path id="Vector" d="M60.91 34.01L63.5 33.01C63.5 32.83 63.56 32.65 63.61 32.46L64.1 30.65L61.98 30.1L62.17 29.39L68.93 31.2L68.25 33.73C68.1 34.47 67.69 35.13 67.09 35.59C66.82 35.78 66.5 35.9 66.17 35.95C65.84 36 65.51 35.97 65.19 35.87C64.71 35.76 64.27 35.5 63.96 35.11C63.65 34.73 63.48 34.25 63.48 33.76L60.72 34.76L60.91 34.01ZM64.26 34.29C64.38 34.5 64.54 34.69 64.73 34.84C64.92 34.99 65.14 35.1 65.37 35.16C65.61 35.22 65.85 35.24 66.09 35.2C66.33 35.17 66.56 35.08 66.77 34.96C67.21 34.6 67.51 34.1 67.62 33.55L68.1 31.75L64.71 30.84L64.23 32.64C64.05 33.17 64.06 33.76 64.26 34.29Z" fill="#303030" fill-opacity="1.000000" fill-rule="nonzero"/>
	<path id="Vector" d="M57.32 40.45L56.81 40.06L59.81 36.11L65.39 40.34L62.49 44.17L61.98 43.78L64.43 40.55L62.43 39.04L60.24 41.93L59.74 41.55L61.98 38.66L59.91 37.09L57.32 40.45Z" fill="#303030" fill-opacity="1.000000" fill-rule="nonzero"/>
	<path id="Vector" d="M54.98 48.42L53.55 48.5L53.55 48.02L54.98 48.01L54.21 46.82L54.6 46.57L55.36 47.77L55.98 46.43L56.41 46.66L55.73 47.92L57.16 47.84L57.16 48.33L55.71 48.33L56.48 49.52L56.09 49.77L55.33 48.57L54.67 49.87L54.25 49.63L54.98 48.42Z" fill="#303030" fill-opacity="1.000000" fill-rule="nonzero"/>
	<path id="Vector" d="M41.98 47.62L43.19 48.29C43.39 47.9 43.68 47.56 44.02 47.28C44.37 47.01 44.76 46.82 45.19 46.71C45.59 46.58 46.01 46.54 46.42 46.58C46.78 46.61 47.12 46.73 47.42 46.94C47.69 47.14 47.88 47.42 47.98 47.74C48.1 48.13 48.08 48.56 47.92 48.94C47.67 49.46 47.33 49.93 46.92 50.33C47.25 50.51 47.56 50.72 47.83 50.98C48.02 51.17 48.16 51.41 48.24 51.67C48.29 51.87 48.29 52.08 48.25 52.28C48.2 52.49 48.11 52.68 47.98 52.84C47.71 53.22 47.31 53.5 46.86 53.61C46.46 53.76 46.02 53.76 45.62 53.61C45.44 53.53 45.28 53.42 45.16 53.27C45.03 53.12 44.95 52.95 44.9 52.76C44.79 52.43 44.82 52.07 44.97 51.76C45.2 51.3 45.5 50.89 45.86 50.53L43.45 49.19C43.36 49.66 43.34 50.14 43.39 50.62L42.78 50.62C42.74 50.03 42.81 49.44 42.98 48.88L41.72 48.18L41.98 47.62ZM43.72 48.62L46.37 50.09C46.72 49.76 47 49.37 47.22 48.94C47.33 48.65 47.33 48.33 47.22 48.04C47.17 47.86 47.09 47.71 46.96 47.57C46.84 47.44 46.69 47.35 46.52 47.29C46.1 47.15 45.65 47.15 45.24 47.29C44.9 47.38 44.58 47.54 44.32 47.77C44.05 47.99 43.83 48.27 43.68 48.59L43.72 48.62ZM47.48 52.62C47.55 52.51 47.59 52.38 47.6 52.26C47.61 52.13 47.6 52 47.56 51.88C47.5 51.68 47.39 51.5 47.24 51.36C46.99 51.14 46.71 50.96 46.41 50.81C46.11 51.11 45.84 51.44 45.62 51.81C45.5 52.04 45.47 52.3 45.54 52.55C45.57 52.66 45.63 52.77 45.7 52.86C45.78 52.95 45.87 53.03 45.98 53.08C46.23 53.17 46.52 53.17 46.77 53.08C47.04 53.01 47.28 52.84 47.44 52.61L47.48 52.62Z" fill="#303030" fill-opacity="1.000000" fill-rule="nonzero"/>
	<path id="Vector" d="M29.79 55.33L29.93 48.33L30.64 48.33L30.53 53.93L33.37 49.27L33.72 49.27L36.38 54.01L36.48 48.44L37.19 48.44L37.06 55.44L36.45 55.44L33.51 50.21L30.4 55.34L29.79 55.33Z" fill="#303030" fill-opacity="1.000000" fill-rule="nonzero"/>
	<path id="Vector" d="M26.31 48.01C26.77 48.44 27.09 49 27.25 49.61C27.42 50.22 27.4 50.86 27.22 51.47C27.06 52.09 26.73 52.65 26.27 53.1C25.83 53.54 25.27 53.84 24.66 53.98C24.02 54.12 23.35 54.1 22.72 53.92C22.09 53.76 21.51 53.45 21.04 53.01C20.59 52.58 20.27 52.03 20.11 51.43C19.96 50.81 19.97 50.15 20.14 49.54C20.32 48.92 20.65 48.36 21.11 47.91C21.55 47.47 22.09 47.16 22.69 47.01C23.33 46.86 23.99 46.88 24.62 47.07C25.26 47.23 25.84 47.55 26.31 48.01ZM22.9 47.66C22.41 47.77 21.96 48.02 21.61 48.38C21.24 48.75 20.98 49.2 20.85 49.71C20.71 50.21 20.71 50.74 20.85 51.24C20.97 51.73 21.22 52.17 21.58 52.52C21.96 52.89 22.42 53.15 22.93 53.29C23.44 53.42 23.97 53.42 24.48 53.29C24.97 53.17 25.42 52.92 25.78 52.57C26.15 52.2 26.41 51.74 26.54 51.24C26.68 50.73 26.68 50.2 26.54 49.7C26.41 49.21 26.16 48.77 25.8 48.42C25.42 48.05 24.95 47.79 24.44 47.66C23.94 47.52 23.4 47.52 22.9 47.66Z" fill="#303030" fill-opacity="1.000000" fill-rule="nonzero"/>
	<path id="Vector" d="M15.33 43.01L15.6 45.76C15.77 45.83 15.94 45.91 16.1 46.01L17.73 46.95L18.83 45.01L19.48 45.38L15.98 51.41L13.7 50.1C13.03 49.76 12.49 49.19 12.2 48.5C12.09 48.19 12.05 47.85 12.09 47.52C12.13 47.19 12.24 46.88 12.42 46.6C12.65 46.16 13.02 45.81 13.47 45.6C13.93 45.41 14.43 45.37 14.91 45.49L14.62 42.55L15.33 43.01ZM14.19 46.17C13.95 46.23 13.73 46.33 13.54 46.48C13.35 46.63 13.19 46.81 13.07 47.02C12.95 47.23 12.87 47.46 12.84 47.7C12.81 47.94 12.83 48.19 12.9 48.42C13.13 48.94 13.54 49.36 14.05 49.61L15.66 50.54L17.41 47.54L15.8 46.61C15.34 46.26 14.77 46.09 14.19 46.12L14.19 46.17Z" fill="#303030" fill-opacity="1.000000" fill-rule="nonzero"/>
	<path id="Vector" d="M9.41 38.32L9.86 37.87L13.31 41.42L8.31 46.3L4.98 42.86L5.44 42.41L8.27 45.32L9.98 43.59L7.5 41.01L7.98 40.55L10.51 43.15L12.37 41.34L9.41 38.32Z" fill="#303030" fill-opacity="1.000000" fill-rule="nonzero"/>
	<path id="Vector" d="M1.98 34.39L2.22 33.01L2.69 33.08L2.42 34.5L3.75 34.01L3.91 34.45L2.56 34.91L3.67 35.85L3.35 36.21L2.28 35.21L2.03 36.63L1.55 36.54L1.83 35.12L0.49 35.6L0.34 35.21L1.68 34.74L0.57 33.81L0.9 33.45L1.98 34.39Z" fill="#303030" fill-opacity="1.000000" fill-rule="nonzero"/>
</svg>
